<svg class="animated" id="freepik_stories-business-vision" xmlns="http://www.w3.org/2000/svg" viewBox="0 0 500 500" version="1.1" xmlns:xlink="http://www.w3.org/1999/xlink" xmlns:svgjs="http://svgjs.com/svgjs"><style>svg#freepik_stories-business-vision:not(.animated) .animable {opacity: 0;}svg#freepik_stories-business-vision.animated #freepik--clouds-2--inject-24 {animation: 6s Infinite  linear shake;animation-delay: 0s;}svg#freepik_stories-business-vision.animated #freepik--Symbol--inject-24 {animation: 1.5s Infinite  linear heartbeat;animation-delay: 0s;}svg#freepik_stories-business-vision.animated #freepik--Lines--inject-24 {animation: 6s Infinite  linear floating;animation-delay: 0s;}svg#freepik_stories-business-vision.animated #freepik--ladder-1--inject-24 {animation: 1.5s Infinite  linear wind;animation-delay: 0s;}            @keyframes shake {                10%, 90% {                    transform: translate3d(-1px, 0, 0);                  }                  20%, 80% {                    transform: translate3d(2px, 0, 0);                  }                  30%, 50%, 70% {                    transform: translate3d(-4px, 0, 0);                  }                  40%, 60% {                    transform: translate3d(4px, 0, 0);                  }            }                    @keyframes heartbeat {                0% {                    transform: scale(1);                }                10% {                    transform: scale(1.1);                }                30% {                    transform: scale(1);                }                40% {                    transform: scale(1);                }                50% {                    transform: scale(1.1);                }                60% {                    transform: scale(1);                }                100% {                    transform: scale(1);                }            }                    @keyframes floating {                0% {                    opacity: 1;                    transform: translateY(0px);                }                50% {                    transform: translateY(-10px);                }                100% {                    opacity: 1;                    transform: translateY(0px);                }            }                    @keyframes wind {                0% {                    transform: rotate( 0deg );                }                25% {                    transform: rotate( 1deg );                }                75% {                    transform: rotate( -1deg );                }            }        </style><g id="freepik--background-simple--inject-24" class="animable" style="transform-origin: 244.824px 244.614px;"><path d="M421.19,121A209.84,209.84,0,0,0,398,105.11C371.61,89.27,344.45,74.54,316.33,62c-28.42-12.67-60.11-25.54-91.73-25.54-71.31,0-206.55,185-201,253.88s162.9,157.37,228.68,162.29S427.46,329.7,455.12,271.91c14.45-30.19,13.93-67.23,3.37-98.52C450.77,150.54,438,134.47,421.19,121Z" style="fill: rgb(0, 255, 136); transform-origin: 244.824px 244.614px;" id="el6t8wlzfpk97" class="animable"></path><g id="elsjegm2408pg"><path d="M421.19,121A209.84,209.84,0,0,0,398,105.11C371.61,89.27,344.45,74.54,316.33,62c-28.42-12.67-60.11-25.54-91.73-25.54-71.31,0-206.55,185-201,253.88s162.9,157.37,228.68,162.29S427.46,329.7,455.12,271.91c14.45-30.19,13.93-67.23,3.37-98.52C450.77,150.54,438,134.47,421.19,121Z" style="fill: rgb(255, 255, 255); opacity: 0.7; transform-origin: 244.824px 244.614px;" class="animable"></path></g></g><g id="freepik--clouds-2--inject-24" class="animable" style="transform-origin: 247.905px 208.784px;"><path d="M219.75,229s-12.94-35-33.65-44-38.83,6.47-45.31,15.53-6.47,11.65-12.94,9.06S111,195.34,96.78,207,89,229,81.25,230.29s-18.12-9.07-28.48,0-10.35,16.82-10.35,16.82-14.24-6.47-20.71-1.29-7.77,14.24-7.77,14.24H267.65s9.06-18.12-10.36-25.89S228.82,230.29,219.75,229Z" style="fill: rgb(255, 255, 255); stroke: rgb(38, 50, 56); stroke-linecap: round; stroke-linejoin: round; transform-origin: 141.85px 221.171px;" id="elprpb3zbejad" class="animable"></path><path d="M315.92,303.75s-6.43-17.35-16.71-21.85-19.27,3.22-22.48,7.71-3.22,5.79-6.43,4.5S262,287,254.88,292.83s-3.85,10.92-7.71,11.56-9-4.5-14.14,0-5.14,8.35-5.14,8.35-7.06-3.21-10.28-.64-3.85,7.07-3.85,7.07H339.69s4.5-9-5.14-12.85S320.42,304.39,315.92,303.75Z" style="fill: rgb(255, 255, 255); stroke: rgb(38, 50, 56); stroke-linecap: round; stroke-linejoin: round; transform-origin: 277.25px 299.854px;" id="eli61mu1d1nlo" class="animable"></path><path d="M457.05,121.6s-6.43-17.34-16.71-21.84-19.27,3.21-22.49,7.71-3.21,5.78-6.42,4.5-8.35-7.07-15.42-1.29-3.86,10.92-7.71,11.57-9-4.5-14.14,0S369,130.6,369,130.6s-7.06-3.21-10.28-.64-3.85,7.06-3.85,7.06H480.82s4.5-9-5.14-12.85S461.55,122.25,457.05,121.6Z" style="fill: rgb(255, 255, 255); stroke: rgb(38, 50, 56); stroke-linecap: round; stroke-linejoin: round; transform-origin: 418.37px 117.709px;" id="el3bgruphasd2" class="animable"></path></g><g id="freepik--Symbol--inject-24" class="animable animator-active" style="transform-origin: 449.625px 210px;"><path d="M449.46,230v-3.39q-4.15-.17-6.2-2.7a12.2,12.2,0,0,1-2.23-7.22l5.16-1a16.81,16.81,0,0,0,.44,3.35,4.71,4.71,0,0,0,1.15,2.23,2.8,2.8,0,0,0,2.08.79,2.39,2.39,0,0,0,2.08-.87,3.68,3.68,0,0,0,.62-2.19,5.83,5.83,0,0,0-1-3.51,16.49,16.49,0,0,0-2.56-2.75l-4.15-3.62a15.63,15.63,0,0,1-2-2.12,9.07,9.07,0,0,1-1.33-2.5,10,10,0,0,1-.48-3.25,7.76,7.76,0,0,1,2.09-5.75,8.39,8.39,0,0,1,5.65-2.27V190h1.73v3.22a7.63,7.63,0,0,1,3.39.91,6.23,6.23,0,0,1,2.12,2,9.49,9.49,0,0,1,1.17,2.76,16.46,16.46,0,0,1,.46,3.19l-5.08.88a19.43,19.43,0,0,0-.32-2.76,3.83,3.83,0,0,0-.91-1.93,2.34,2.34,0,0,0-1.95-.63,2.65,2.65,0,0,0-2.08.89,3.23,3.23,0,0,0-.71,2.14,4.71,4.71,0,0,0,.77,2.8,14.48,14.48,0,0,0,1.89,2.12l4.12,3.59a22.23,22.23,0,0,1,2.4,2.54,11.33,11.33,0,0,1,1.77,3.06,10.4,10.4,0,0,1,.67,3.87,8.47,8.47,0,0,1-.87,3.89,7.11,7.11,0,0,1-2.44,2.77,8.29,8.29,0,0,1-3.75,1.29V230Z" style="fill: rgb(38, 50, 56); transform-origin: 449.625px 210px;" id="el8h45xh0sv4l" class="animable"></path></g><g id="freepik--Graphics--inject-24" class="animable" style="transform-origin: 229.975px 224.33px;"><path d="M292.93,82.49a1.5,1.5,0,0,1-1.5-1.5V72.91a1.5,1.5,0,0,1,3,0V81A1.5,1.5,0,0,1,292.93,82.49Z" style="fill: rgb(38, 50, 56); transform-origin: 292.93px 76.95px;" id="elivgb40osixb" class="animable"></path><path d="M297,78.45h-8.08a1.5,1.5,0,0,1,0-3H297a1.5,1.5,0,0,1,0,3Z" style="fill: rgb(38, 50, 56); transform-origin: 292.96px 76.95px;" id="elr46v7z4ntun" class="animable"></path><path d="M66.69,188.05a1.5,1.5,0,0,1-1.5-1.5v-8.08a1.5,1.5,0,0,1,3,0v8.08A1.5,1.5,0,0,1,66.69,188.05Z" style="fill: rgb(38, 50, 56); transform-origin: 66.69px 182.51px;" id="el7yp6kpt9oyl" class="animable"></path><path d="M70.73,184H62.65a1.5,1.5,0,0,1,0-3h8.08a1.5,1.5,0,1,1,0,3Z" style="fill: rgb(38, 50, 56); transform-origin: 66.69px 182.5px;" id="eler6rrkckorq" class="animable"></path><path d="M321.88,375.23a1.5,1.5,0,0,1-1.5-1.5v-8.08a1.5,1.5,0,0,1,3,0v8.08A1.5,1.5,0,0,1,321.88,375.23Z" style="fill: rgb(38, 50, 56); transform-origin: 321.88px 369.69px;" id="el1ngakpplamyh" class="animable"></path><path d="M325.92,371.19h-8.08a1.5,1.5,0,0,1,0-3h8.08a1.5,1.5,0,0,1,0,3Z" style="fill: rgb(38, 50, 56); transform-origin: 321.88px 369.69px;" id="elmm4ikzm04v" class="animable"></path><path d="M373.72,176.6a1.5,1.5,0,0,1-1.5-1.5V167a1.5,1.5,0,1,1,3,0v8.08A1.5,1.5,0,0,1,373.72,176.6Z" style="fill: rgb(38, 50, 56); transform-origin: 373.72px 171.05px;" id="elmuqd7vya1qk" class="animable"></path><path d="M377.76,172.56h-8.08a1.5,1.5,0,0,1,0-3h8.08a1.5,1.5,0,0,1,0,3Z" style="fill: rgb(38, 50, 56); transform-origin: 373.72px 171.06px;" id="eltf69sg3tw2" class="animable"></path><path d="M119.88,377.25a1.5,1.5,0,0,1-1.5-1.5v-8.08a1.5,1.5,0,0,1,3,0v8.08A1.5,1.5,0,0,1,119.88,377.25Z" style="fill: rgb(38, 50, 56); transform-origin: 119.88px 371.71px;" id="elgh804v1jhwo" class="animable"></path><path d="M123.92,373.21h-8.08a1.5,1.5,0,1,1,0-3h8.08a1.5,1.5,0,1,1,0,3Z" style="fill: rgb(38, 50, 56); transform-origin: 119.88px 371.71px;" id="elcx5f4gdviml" class="animable"></path><circle cx="321.88" cy="252.69" r="4.71" style="fill: none; stroke: rgb(38, 50, 56); stroke-linecap: round; stroke-linejoin: round; transform-origin: 321.88px 252.69px;" id="elw7s48sf1pgm" class="animable"></circle><circle cx="165" cy="78.97" r="4.71" style="fill: none; stroke: rgb(38, 50, 56); stroke-linecap: round; stroke-linejoin: round; transform-origin: 165px 78.97px;" id="elvc16couohe" class="animable"></circle><circle cx="38.08" cy="279.29" r="2.36" style="fill: none; stroke: rgb(38, 50, 56); stroke-linecap: round; stroke-linejoin: round; transform-origin: 38.08px 279.29px;" id="elq1n8a9eq0g" class="animable"></circle><path d="M287.2,178.62a2.36,2.36,0,1,0-2.35,2.36A2.35,2.35,0,0,0,287.2,178.62Z" style="fill: none; stroke: rgb(38, 50, 56); stroke-linecap: round; stroke-linejoin: round; transform-origin: 284.84px 178.62px;" id="elhmbj0w1of8i" class="animable"></path><circle cx="421.87" cy="74.93" r="2.36" style="fill: none; stroke: rgb(38, 50, 56); stroke-linecap: round; stroke-linejoin: round; transform-origin: 421.87px 74.93px;" id="el6ltasw2too8" class="animable"></circle></g><g id="freepik--Lines--inject-24" class="animable" style="transform-origin: 315.115px 268.395px;"><line x1="454.7" y1="180.22" x2="454.7" y2="84.01" style="fill: none; stroke: rgb(38, 50, 56); stroke-linecap: round; stroke-linejoin: round; transform-origin: 454.7px 132.115px;" id="elw4qcrs4ixp" class="animable"></line><line x1="435.41" y1="203.66" x2="382.74" y2="147.62" style="fill: none; stroke: rgb(38, 50, 56); stroke-linecap: round; stroke-linejoin: round; transform-origin: 409.075px 175.64px;" id="elw5czs78v5fb" class="animable"></line><line x1="428.74" y1="218.94" x2="276.73" y2="218.94" style="fill: none; stroke: rgb(38, 50, 56); stroke-linecap: round; stroke-linejoin: round; transform-origin: 352.735px 218.94px;" id="elim37zqcm5t" class="animable"></line><line x1="415.96" y1="204.01" x2="273.51" y2="141.84" style="fill: none; stroke: rgb(38, 50, 56); stroke-linecap: round; stroke-linejoin: round; transform-origin: 344.735px 172.925px;" id="elr4q8fqp5bio" class="animable"></line><line x1="429.52" y1="209.93" x2="421.59" y2="206.47" style="fill: none; stroke: rgb(38, 50, 56); stroke-linecap: round; stroke-linejoin: round; transform-origin: 425.555px 208.2px;" id="elp790jp0u3jm" class="animable"></line><line x1="404.02" y1="337.89" x2="400.09" y2="346.8" style="fill: none; stroke: rgb(38, 50, 56); stroke-linecap: round; stroke-linejoin: round; transform-origin: 402.055px 342.345px;" id="el6g445tcxcyp" class="animable"></line><line x1="448.7" y1="236.81" x2="406.13" y2="333.11" style="fill: none; stroke: rgb(38, 50, 56); stroke-linecap: round; stroke-linejoin: round; transform-origin: 427.415px 284.96px;" id="elrn06wc0l4h" class="animable"></line><line x1="454.7" y1="239.5" x2="454.7" y2="290.26" style="fill: none; stroke: rgb(38, 50, 56); stroke-linecap: round; stroke-linejoin: round; transform-origin: 454.7px 264.88px;" id="elcm1su3gxg7a" class="animable"></line><line x1="470.01" y1="218.94" x2="477.19" y2="218.94" style="fill: none; stroke: rgb(38, 50, 56); stroke-linecap: round; stroke-linejoin: round; transform-origin: 473.6px 218.94px;" id="elwtg2g06a29" class="animable"></line><line x1="421.9" y1="240.81" x2="153.04" y2="452.78" style="fill: none; stroke: rgb(38, 50, 56); stroke-linecap: round; stroke-linejoin: round; transform-origin: 287.47px 346.795px;" id="elr51h20mfvos" class="animable"></line><line x1="432.75" y1="232.26" x2="426.61" y2="237.1" style="fill: none; stroke: rgb(38, 50, 56); stroke-linecap: round; stroke-linejoin: round; transform-origin: 429.68px 234.68px;" id="ellwgc1lifhbq" class="animable"></line><line x1="443.81" y1="189.98" x2="433.4" y2="160.06" style="fill: none; stroke: rgb(38, 50, 56); stroke-linecap: round; stroke-linejoin: round; transform-origin: 438.605px 175.02px;" id="elfcnxvzqxevl" class="animable"></line></g><g id="freepik--ladder-3--inject-24" class="animable" style="transform-origin: 273.852px 411.119px;"><path d="M282.9,376.44a.59.59,0,0,0-.59.59v6.57H265.39V377a.59.59,0,0,0-.6-.59.58.58,0,0,0-.59.59v68.15a.59.59,0,0,0,.59.6.6.6,0,0,0,.6-.6v-7.73h16.92v7.73a.6.6,0,1,0,1.19,0V377A.59.59,0,0,0,282.9,376.44Zm-17.51,25.9h16.92v7.59H265.39Zm0,8.78h16.92v7.59H265.39Zm16.92-10H265.39v-7.58h16.92ZM265.39,419.9h16.92v7.58H265.39Zm16.92-35.11v7.59H265.39v-7.59Zm-16.92,51.47v-7.59h16.92v7.59Z" style="fill: rgb(38, 50, 56); transform-origin: 273.852px 411.119px;" id="els96x3vdmgz" class="animable"></path></g><g id="freepik--ladder-2--inject-24" class="animable" style="transform-origin: 149.415px 259.74px;"><line x1="103.76" y1="87.95" x2="103.76" y2="431.53" style="fill: none; stroke: rgb(38, 50, 56); stroke-linecap: round; stroke-linejoin: round; stroke-width: 6px; transform-origin: 103.76px 259.74px;" id="eln3szvhtbgc" class="animable"></line><line x1="195.07" y1="87.95" x2="195.07" y2="431.53" style="fill: none; stroke: rgb(38, 50, 56); stroke-linecap: round; stroke-linejoin: round; stroke-width: 6px; transform-origin: 195.07px 259.74px;" id="elhw566f7j4lf" class="animable"></line><line x1="105.01" y1="124.05" x2="193.03" y2="124.05" style="fill: none; stroke: rgb(38, 50, 56); stroke-linecap: round; stroke-linejoin: round; stroke-width: 6px; transform-origin: 149.02px 124.05px;" id="elu7lhzd6ek88" class="animable"></line><line x1="105.01" y1="168.3" x2="193.03" y2="168.3" style="fill: none; stroke: rgb(38, 50, 56); stroke-linecap: round; stroke-linejoin: round; stroke-width: 6px; transform-origin: 149.02px 168.3px;" id="eli14do77r2c" class="animable"></line><line x1="105.01" y1="212.55" x2="193.03" y2="212.55" style="fill: none; stroke: rgb(38, 50, 56); stroke-linecap: round; stroke-linejoin: round; stroke-width: 6px; transform-origin: 149.02px 212.55px;" id="el1f72wp43by6" class="animable"></line><line x1="105.01" y1="256.8" x2="193.03" y2="256.8" style="fill: none; stroke: rgb(38, 50, 56); stroke-linecap: round; stroke-linejoin: round; stroke-width: 6px; transform-origin: 149.02px 256.8px;" id="elrp5klnv9h7j" class="animable"></line><line x1="105.01" y1="301.05" x2="193.03" y2="301.05" style="fill: none; stroke: rgb(38, 50, 56); stroke-linecap: round; stroke-linejoin: round; stroke-width: 6px; transform-origin: 149.02px 301.05px;" id="elt06sjjkqgg9" class="animable"></line><line x1="105.01" y1="345.3" x2="193.03" y2="345.3" style="fill: none; stroke: rgb(38, 50, 56); stroke-linecap: round; stroke-linejoin: round; stroke-width: 6px; transform-origin: 149.02px 345.3px;" id="el5dwqh7cfm5d" class="animable"></line><line x1="105.01" y1="389.55" x2="193.03" y2="389.55" style="fill: none; stroke: rgb(38, 50, 56); stroke-linecap: round; stroke-linejoin: round; stroke-width: 6px; transform-origin: 149.02px 389.55px;" id="eltvgovs9bye" class="animable"></line></g><g id="freepik--ladder-1--inject-24" class="animable" style="transform-origin: 69.745px 369.545px;"><path d="M83.77,315.84a.92.92,0,0,0-.92.92v10.17H56.64V316.76a.92.92,0,0,0-1.84,0V422.33a.92.92,0,0,0,1.84,0v-12H82.85v12a.92.92,0,0,0,1.84,0V316.76A.92.92,0,0,0,83.77,315.84ZM56.64,356H82.85v11.75H56.64Zm0,13.59H82.85v11.75H56.64Zm26.21-15.44H56.64V342.37H82.85Zm-26.21,29H82.85v11.75H56.64Zm26.21-54.39v11.76H56.64V328.77ZM56.64,408.51V396.75H82.85v11.76Z" style="fill: rgb(38, 50, 56); transform-origin: 69.745px 369.545px;" id="elggs9lh5fda6" class="animable"></path></g><g id="freepik--Character--inject-24" class="animable" style="transform-origin: 196.216px 252.57px;"><path d="M174.81,287.85s-5.56,26-4.32,41.43,4.63,50.7,4.63,50.7-8.65,2.78-11.74,2.47-6.19-.93-4.64,1.85,2.47,2.79,6.18,4.95,4,3.4,6.8,5.56,8.35,6.81,10.51,1.86.62-16.39.62-16.39,3.71-21.64,5.57-39.26.61-26.89.61-26.89l9.9-26.59Z" style="fill: rgb(255, 255, 255); stroke: rgb(38, 50, 56); stroke-linecap: round; stroke-linejoin: round; transform-origin: 178.629px 343.205px;" id="elsuza6vw2io9" class="animable"></path><path d="M177,386.16c-4.33-2.48-1.86-6.18-1.86-6.18s-8.65,2.78-11.74,2.47-6.19-.93-4.64,1.85,2.47,2.79,6.18,4.95,4,3.4,6.8,5.56,8.35,6.8,10.51,1.86c1.05-2.4,1.23-6.31,1.13-9.71A9.31,9.31,0,0,1,177,386.16Z" style="fill: rgb(0, 255, 136); stroke: rgb(38, 50, 56); stroke-linecap: round; stroke-linejoin: round; transform-origin: 170.876px 389.422px;" id="el2fazqygnif3" class="animable"></path><path d="M182.23,396.67v0a23.28,23.28,0,0,1-10-4.59c-4.22-3.59-4.86-3.17-7.81-4.86a21,21,0,0,1-5.28-4.94c-.85.19-1.16.74-.43,2.05,1.54,2.79,2.47,2.79,6.18,4.95s4,3.4,6.8,5.56S180.07,401.61,182.23,396.67Z" style="fill: rgb(255, 255, 255); stroke: rgb(38, 50, 56); stroke-linecap: round; stroke-linejoin: round; transform-origin: 170.265px 390.576px;" id="elv8945k6qjgj" class="animable"></path><path d="M135.86,251.06s-5.56,7.73-4.64,11.44,5.57,21.33,11.13,38.95a124.17,124.17,0,0,1,5.88,31.23,49.56,49.56,0,0,1-12.06-2.17c-5.25-1.85-5.56,1.86-3.4,4.95s11.13,12.36,16.69,16.38,6.5,4,7.73.93.63-18.14-.61-25.56-.75-31.65-.53-36.48a69.17,69.17,0,0,0-.4-10.92Z" style="fill: rgb(255, 255, 255); stroke: rgb(38, 50, 56); stroke-linecap: round; stroke-linejoin: round; transform-origin: 144.491px 303.017px;" id="els6iecfjicaj" class="animable"></path><line x1="135.09" y1="264.01" x2="140.12" y2="264.96" style="fill: none; stroke: rgb(38, 50, 56); stroke-linecap: round; stroke-linejoin: round; transform-origin: 137.605px 264.485px;" id="elg47n6wflak" class="animable"></line><path d="M149.46,337.93c-2.16-3.09-1.23-5.25-1.23-5.25a49.56,49.56,0,0,1-12.06-2.17c-5.25-1.85-5.56,1.86-3.4,4.95s11.13,12.36,16.69,16.38,6.5,4,7.73.93c.61-1.52.75-5.4.46-12.52C155.52,341.24,151.07,340.22,149.46,337.93Z" style="fill: rgb(0, 255, 136); stroke: rgb(38, 50, 56); stroke-linecap: round; stroke-linejoin: round; transform-origin: 144.654px 342.495px;" id="elzwhlbl4s50a" class="animable"></path><path d="M149.46,351.84c5.57,4,6.5,4,7.73.93a5.4,5.4,0,0,0,.28-1c-4.28-.18-8.95-2.86-15.18-9.09a114.73,114.73,0,0,1-10.47-11.76c-.65,1.06-.21,2.89,1,4.56C134.93,338.55,143.9,347.82,149.46,351.84Z" style="fill: rgb(255, 255, 255); stroke: rgb(38, 50, 56); stroke-linecap: round; stroke-linejoin: round; transform-origin: 144.495px 342.944px;" id="el7a36umqy0g" class="animable"></path><path d="M160.28,222.31l-24.42,28.75a39.26,39.26,0,0,0,9.28,26c10.2,11.75,24.73,16.39,38.64,16.39s17.62-3.71,17.62-3.71,13.43-23.24,13.8-37.47c.32-12.41-1.46-18.25-1.46-18.25S184.09,241.79,160.28,222.31Z" style="fill: rgb(38, 50, 56); stroke: rgb(38, 50, 56); stroke-linecap: round; stroke-linejoin: round; transform-origin: 175.547px 257.88px;" id="elw9s1frm7w6e" class="animable"></path><path d="M223.89,136.38c0,2.28-1,4.12-2.14,4.12s-2.13-1.84-2.13-4.12.95-4.11,2.13-4.11S223.89,134.11,223.89,136.38Z" style="fill: rgb(255, 255, 255); stroke: rgb(38, 50, 56); stroke-linecap: round; stroke-linejoin: round; transform-origin: 221.755px 136.385px;" id="el8uaungqbr15" class="animable"></path><path d="M236.79,129.25a1.24,1.24,0,0,0-.5.1l-14.54,2.92v8.23l15-1.73c1.37,0,2.48-2.13,2.48-4.76S238.16,129.25,236.79,129.25Z" style="fill: rgb(255, 255, 255); stroke: rgb(38, 50, 56); stroke-linecap: round; stroke-linejoin: round; transform-origin: 230.49px 134.875px;" id="el6w4kvlrk7z" class="animable"></path><path d="M220.48,133.45l-5.29.81.34,6.64,4.95-.56c1,0,1.79-1.54,1.79-3.44S221.47,133.45,220.48,133.45Z" style="fill: rgb(255, 255, 255); stroke: rgb(38, 50, 56); stroke-linecap: round; stroke-linejoin: round; transform-origin: 218.73px 137.175px;" id="elchgdukrnyw" class="animable"></path><path d="M221.83,130.35s.34,2.21.77,4.17a18.1,18.1,0,0,1-.17,5.95c-.17.43-3.07-.17-3.58.6s.85.25,2.9,1.7a8.92,8.92,0,0,0,4.34,1.79c1.27.25,4.85,5.28,4.85,5.28l6.72-2.3-3.74-5.19s.76-6.9.42-9.54-2-3.4-2.81-4.08-3.06-.17-4-.09-1.1.34-1.87.09S222,128.39,221.83,130.35Z" style="fill: rgb(255, 255, 255); stroke: rgb(38, 50, 56); stroke-linecap: round; stroke-linejoin: round; transform-origin: 228.201px 139.111px;" id="eluwo0yfrjtx" class="animable"></path><path d="M217.72,127.36a17,17,0,0,1-.16,3.8c-.32,1.27-1.43,1.43-.16,4.43s1.27,8.08-.63,10.93-4,6.49-6.49,6.17a11.58,11.58,0,0,1-4.59-1.74l-.95,5.22L193.18,153s-1.43-9,.63-12.83,10.77-7.44,14.73-11.08S214.71,123.56,217.72,127.36Z" style="fill: rgb(255, 255, 255); stroke: rgb(38, 50, 56); stroke-linecap: round; stroke-linejoin: round; transform-origin: 205.491px 140.723px;" id="ely21h0zb752" class="animable"></path><path d="M193,151.58s12.35,2.85,13.3,3.64,2.22,4.91,2.22,4.91l-16.94-4.75Z" style="fill: rgb(255, 255, 255); stroke: rgb(38, 50, 56); stroke-linecap: round; stroke-linejoin: round; transform-origin: 200.05px 155.855px;" id="elkb0ypgygz4o" class="animable"></path><polygon points="188.69 152.68 208.69 158.71 212.02 163.77 189.85 158.55 188.69 152.68" style="fill: rgb(0, 255, 136); stroke: rgb(38, 50, 56); stroke-linecap: round; stroke-linejoin: round; transform-origin: 200.355px 158.225px;" id="elix0g8fe3lyd" class="animable"></polygon><path d="M141.72,119.13s-2.48,0-3.55,1.42-2.48,4.43-1.41,6.55,2.12,8.51,2.12,8.51l8.55-1.44s2.44-4,2.62-4.59,3-3.54,2.66-5.13-1.78-.89-2.13-2.31.53-3-.53-4.25a2.83,2.83,0,0,0-3.55-.53,13.62,13.62,0,0,1-1.59,1.24S144.38,118.07,141.72,119.13Z" style="fill: rgb(255, 255, 255); stroke: rgb(38, 50, 56); stroke-linecap: round; stroke-linejoin: round; transform-origin: 144.558px 126.285px;" id="elzexn6ym0hc" class="animable"></path><path d="M139.41,140.39l-.53-4.78s.36-1.06,3-2.3,6.64-.72,6.64-.72l-.09,4.79Z" style="fill: rgb(255, 255, 255); stroke: rgb(38, 50, 56); stroke-linecap: round; stroke-linejoin: round; transform-origin: 143.7px 136.436px;" id="el67e3lnn9go3" class="animable"></path><path d="M231.9,145.3h0a6.13,6.13,0,0,0-3.45,6.64l4.89,20.88L214,163.08s-41.11-12.58-44-12.05-16.48,8.15-16.48,8.15l-4.78-24.1a15.74,15.74,0,0,0-5.67.88,17,17,0,0,0-5.5,3.55s2.66,29.42,3.9,34.2,2.13,8.15,3.19,8.15,20.73-7.8,20.73-7.8L172,202.24l-19.49,27.47s8.68,12.76,30.3,15.95,33.32-8,33.32-8l-5-35.26,4.61-11.88s39.87,6.21,42,5.85,4.25-3,3.37-6.2c-.69-2.48-15.51-31.18-21.27-42.18A6.12,6.12,0,0,0,231.9,145.3Z" style="fill: rgb(0, 255, 136); stroke: rgb(38, 50, 56); stroke-linecap: round; stroke-linejoin: round; transform-origin: 199.442px 190.653px;" id="eloqr4xmbzql9" class="animable"></path><line x1="246.48" y1="178.31" x2="249.46" y2="179.56" style="fill: none; stroke: rgb(38, 50, 56); stroke-linecap: round; stroke-linejoin: round; transform-origin: 247.97px 178.935px;" id="elp1lpjcta8x8" class="animable"></line><line x1="233.34" y1="172.82" x2="242.86" y2="176.8" style="fill: none; stroke: rgb(38, 50, 56); stroke-linecap: round; stroke-linejoin: round; transform-origin: 238.1px 174.81px;" id="eldx4ymk6j6a" class="animable"></line><line x1="165.46" y1="174.06" x2="162.27" y2="160.95" style="fill: none; stroke: rgb(38, 50, 56); stroke-linecap: round; stroke-linejoin: round; transform-origin: 163.865px 167.505px;" id="el7bykm7q84b3" class="animable"></line><line x1="153.59" y1="159.18" x2="144.02" y2="162.9" style="fill: none; stroke: rgb(38, 50, 56); stroke-linecap: round; stroke-linejoin: round; transform-origin: 148.805px 161.04px;" id="elqb9znc1k5li" class="animable"></line><path d="M193.76,194.89a26.59,26.59,0,0,0,2.54,3.27" style="fill: none; stroke: rgb(38, 50, 56); stroke-linecap: round; stroke-linejoin: round; transform-origin: 195.03px 196.525px;" id="el590p87tap7p" class="animable"></path><path d="M182.12,170.52a161.89,161.89,0,0,0,9.39,20.73" style="fill: none; stroke: rgb(38, 50, 56); stroke-linecap: round; stroke-linejoin: round; transform-origin: 186.815px 180.885px;" id="ellq9ani1fjs" class="animable"></path><path d="M187.26,192.67s6.2,7.27,9.22,9.75" style="fill: none; stroke: rgb(38, 50, 56); stroke-linecap: round; stroke-linejoin: round; transform-origin: 191.87px 197.545px;" id="ell99y9arfy4c" class="animable"></path><line x1="215.79" y1="190.54" x2="205.69" y2="190.37" style="fill: none; stroke: rgb(38, 50, 56); stroke-linecap: round; stroke-linejoin: round; transform-origin: 210.74px 190.455px;" id="elevvu71xy8sq" class="animable"></line><line x1="164.4" y1="168.93" x2="159.08" y2="161.48" style="fill: none; stroke: rgb(38, 50, 56); stroke-linecap: round; stroke-linejoin: round; transform-origin: 161.74px 165.205px;" id="elzcdxw0548fg" class="animable"></line><path d="M215.5,130.05a15,15,0,0,1-5.22,8.23c-4.44,3.65-10.93,4-12,6.81s-1.43,10.77-4.12,15.83-8.23,5.86-14.41,3.64-6.33-8.23-11.39-10.76-10.77-2.22-14.89-6.49-7.44-9-4.9-14.72,3.64-5.7,3.64-5.7-3.8.79-4.91,3.16a4.18,4.18,0,0,0,.16,4.12s-3-.79-2.69-4.91,5.22-9.5,13.61-10.13,12.35,3.8,19.32,2.53,14.88-16.3,23.11-15.35,9.18,6,15.35,5.7,8.55,3.64,7,9.65S215.5,130.05,215.5,130.05Z" style="fill: rgb(38, 50, 56); stroke: rgb(38, 50, 56); stroke-linecap: round; stroke-linejoin: round; transform-origin: 184.184px 135.998px;" id="ellvkvmv45kom" class="animable"></path><path d="M215.5,130.05a14.78,14.78,0,0,1-9.81-1c-5.54-2.37-10.93-2.85-13.3.16" style="fill: none; stroke: rgb(255, 255, 255); stroke-linecap: round; stroke-linejoin: round; transform-origin: 203.945px 128.79px;" id="elnrkfkcarbz" class="animable"></path><path d="M194,126.25s2.69-4.43,7.76-4.75,7.28,4,10.92.64" style="fill: none; stroke: rgb(255, 255, 255); stroke-linecap: round; stroke-linejoin: round; transform-origin: 203.34px 123.866px;" id="el7mc9tcwotxt" class="animable"></path></g><g id="freepik--cloud-1--inject-24" class="animable" style="transform-origin: 243.43px 417.467px;"><path d="M473.45,463.82c.07-1.08.11-2.16.11-3.25a47.56,47.56,0,0,0-14.28-34A57.9,57.9,0,0,0,348,406.71a57.92,57.92,0,0,0-73.61,19.53,39,39,0,0,0-17-8.41,39.2,39.2,0,0,0-71.55,2.28,39.73,39.73,0,0,0-6.77-.59A39.25,39.25,0,0,0,169,420.84a60.39,60.39,0,0,0-77-18.21,39.19,39.19,0,0,0-57.38,21.23A39.15,39.15,0,0,0,13.3,458.71c0,1.08,0,2.15.13,3.2" style="fill: rgb(255, 255, 255); stroke: rgb(38, 50, 56); stroke-linecap: round; stroke-linejoin: round; transform-origin: 243.43px 417.467px;" id="elfp9114b0e0m" class="animable"></path></g><defs>     <filter id="active" height="200%">         <feMorphology in="SourceAlpha" result="DILATED" operator="dilate" radius="2"></feMorphology>                <feFlood flood-color="#32DFEC" flood-opacity="1" result="PINK"></feFlood>        <feComposite in="PINK" in2="DILATED" operator="in" result="OUTLINE"></feComposite>        <feMerge>            <feMergeNode in="OUTLINE"></feMergeNode>            <feMergeNode in="SourceGraphic"></feMergeNode>        </feMerge>    </filter>    <filter id="hover" height="200%">        <feMorphology in="SourceAlpha" result="DILATED" operator="dilate" radius="2"></feMorphology>                <feFlood flood-color="#ff0000" flood-opacity="0.5" result="PINK"></feFlood>        <feComposite in="PINK" in2="DILATED" operator="in" result="OUTLINE"></feComposite>        <feMerge>            <feMergeNode in="OUTLINE"></feMergeNode>            <feMergeNode in="SourceGraphic"></feMergeNode>        </feMerge>            <feColorMatrix type="matrix" values="0   0   0   0   0                0   1   0   0   0                0   0   0   0   0                0   0   0   1   0 "></feColorMatrix>    </filter></defs></svg>